<svg width="36" height="36" viewBox="0 0 36 36" fill="none" xmlns="http://www.w3.org/2000/svg">
<path d="M24 10.5C24 10.1022 24.158 9.72064 24.4393 9.43934C24.7206 9.15804 25.1022 9 25.5 9C25.8978 9 26.2794 9.15804 26.5607 9.43934C26.842 9.72064 27 10.1022 27 10.5C27 10.8978 26.842 11.2794 26.5607 11.5607C26.2794 11.842 25.8978 12 25.5 12C25.1022 12 24.7206 11.842 24.4393 11.5607C24.158 11.2794 24 10.8978 24 10.5Z" fill="#FFF9F4"/>
<path fill-rule="evenodd" clip-rule="evenodd" d="M18 10.875C16.1103 10.875 14.2981 11.6257 12.9619 12.9619C11.6257 14.2981 10.875 16.1103 10.875 18C10.875 19.8897 11.6257 21.7019 12.9619 23.0381C14.2981 24.3743 16.1103 25.125 18 25.125C19.8897 25.125 21.7019 24.3743 23.0381 23.0381C24.3743 21.7019 25.125 19.8897 25.125 18C25.125 16.1103 24.3743 14.2981 23.0381 12.9619C21.7019 11.6257 19.8897 10.875 18 10.875ZM13.125 18C13.125 16.7071 13.6386 15.4671 14.5529 14.5529C15.4671 13.6386 16.7071 13.125 18 13.125C19.2929 13.125 20.5329 13.6386 21.4471 14.5529C22.3614 15.4671 22.875 16.7071 22.875 18C22.875 19.2929 22.3614 20.5329 21.4471 21.4471C20.5329 22.3614 19.2929 22.875 18 22.875C16.7071 22.875 15.4671 22.3614 14.5529 21.4471C13.6386 20.5329 13.125 19.2929 13.125 18Z" fill="#FFF9F4"/>
<path fill-rule="evenodd" clip-rule="evenodd" d="M25.887 4.24833C20.645 3.66722 15.3549 3.66722 10.113 4.24833C7.09496 4.58583 4.65746 6.96333 4.30346 9.99633C3.68156 15.3132 3.68156 20.6845 4.30346 26.0013C4.65746 29.0343 7.09346 31.4118 10.113 31.7493C15.3549 32.3298 20.645 32.3298 25.887 31.7493C28.905 31.4118 31.3425 29.0343 31.6965 26.0013C32.3185 20.6845 32.3185 15.3132 31.6965 9.99633C31.3425 6.96333 28.9065 4.58583 25.887 4.24833ZM10.362 6.48333C15.4384 5.92064 20.5615 5.92064 25.638 6.48333C27.633 6.70833 29.2305 8.28183 29.463 10.2588C30.0644 15.4013 30.0644 20.5964 29.463 25.7388C29.3427 26.7064 28.8998 27.6052 28.2057 28.29C27.5117 28.9747 26.607 29.4056 25.638 29.5128C20.5615 30.0756 15.4384 30.0756 10.362 29.5128C9.39287 29.4056 8.48824 28.9747 7.79419 28.29C7.10015 27.6052 6.65722 26.7064 6.53696 25.7388C5.93553 20.5964 5.93553 15.4013 6.53696 10.2588C6.65722 9.29127 7.10015 8.3925 7.79419 7.70771C8.48824 7.02292 9.39287 6.59059 10.362 6.48333Z" fill="#FFF9F4"/>
</svg>
